<?xml version="1.0" encoding="UTF-8"?>
<svg id="Capa_1" data-name="Capa 1" xmlns="http://www.w3.org/2000/svg" viewBox="0 0 1080 613.87" fill="white">
  <path d="M410.57,480.9s-.06,0-.09,0c11.86.43,24.37,1.63,37.59,3.84-17.34-3.31-30.81-3.84-37.5-3.85Z"/>
  <path d="M1070.06,171.33l-42.22-88.93c-4.9-10.32-19.11-11.5-25.65-2.13l-10.95,15.69c-1.52,2.18-4,3.47-6.66,3.47H379.96s-192.38-4.27-231.82,199.27c.08-.03.15-.06.23-.09,16.9-5.38,25.23,19.39,8.42,25.27-3.48,1.21-7.09,2.36-10.8,3.4.77,25.68,5.07,76.86,25.98,113.6,1.68,2.95,1.47,6.6-.75,9.17-12.2,14.09-49.95,63.68-53.54,141.12-.21,4.58,3.54,8.38,8.13,8.38h70.47c2.94,0,5.63-1.56,7.09-4.1,6.17-10.71,24.89-40.32,55.01-63.86,14.03-13.25,64.52-53.88,152.1-50.7.03,0,.06,0,.09,0,6.69,0,20.16.54,37.5,3.85.18.03.35.05.53.08v.02c43.06,8.32,109.66,33.81,156.21,110.76,1.47,2.43,4.05,3.96,6.89,3.96,13.54,0,53.82,0,71.09,0,4.45,0,8.05-3.58,8.1-8.03l.78-67.29c.1-8.61,11.78-11.16,15.46-3.38l35,74.04c1.34,2.84,4.2,4.65,7.34,4.65h67.51c5.59,0,9.51-5.53,7.66-10.81l-49.32-140.67c-1.11-3.17-.15-6.7,2.41-8.88l287.15-243.71c7.01-5.95,9.14-15.87,5.2-24.17ZM808.98,205.68c-13.8,14.19-29.73,24.53-45.87,34-2.95,1.73-6.75.75-8.49-2.21-1.66-2.83-.83-6.43,1.84-8.26,17.38-11.99,58.78-41.65,52.09-65.47-15.93,6.55-32.48,11.33-49.35,14.56-20,3.84-39.65,5.98-60.15,6.03-4.21,0-7.62-3.42-7.61-7.64,0-4.21,3.44-7.6,7.61-7.62,28.19-1.33,57.02-6.62,83.71-15.98,8.93-3.05,17.44-6.95,25.76-11.07,3.86-1.91,8.37-1.08,11.32,1.72,17.47,18.79,4.54,47.33-10.86,61.93ZM893.45,225.48c-13.47,0-24.38-10.92-24.38-24.38s10.92-24.38,24.38-24.38,24.38,10.92,24.38,24.38-10.92,24.38-24.38,24.38Z"/>
  <path d="M290.24,591.26c-.15,4.56,3.53,8.3,8.09,8.3h67.04c4.43,0,8.05-3.52,8.11-7.95.2-15.39,3.13-51.44,23.34-93.45-58.72,1.13-97.56,23.48-116.34,37.63,4.53,15.3,10.33,38.51,9.76,55.47Z"/>
  <path d="M887.07,24.63c-1.1-8.44-11.16-12.16-17.58-6.57-36.1,31.39-129.61,81.39-129.61,81.39h123.98c23.92-27.33,25.65-56.16,23.21-74.81Z"/>
  <path d="M72.05,283.58c-2.97-10.98,5.78-21.65,16.7-20.22,6.41,1.7,9.41,7.61,11.47,15.08,2.13,9.04,1.83,18.69-.45,27.91,7.18,1.05,15.02.66,22.79-.6,4.27-20.35,1.18-41.78-14.07-57.48-16.51-15.39-44.43-8.35-55.49,10.37-10.79,18.27-5.45,40.47,8.07,55.03,8.1,8.34,17.55,13.48,27.64,16.29,5.15-6.94,8.96-15.08,11.06-23.61-12.81-1.88-23.49-8.36-27.72-22.77Z"/>
  <path d="M145.91,311.65c0-.29.03-.53.08-.81.65-4.13,1.38-8.16,2.15-12.13-7.6,2.91-16.53,5.56-25.58,7.04-1.98,9.45-5.56,18.66-10.24,26.96,11.43-.23,22.95-2.38,33.67-5.41-.25-8.45-.13-14.15-.08-15.64Z"/>
  <path d="M88.71,329.96c-.24.33-.47.66-.72.98-14.92,19.82-43.42,28.87-67.66,22.04-12.36-3.24-17.63,14.87-5.48,18.77,31.85,9.53,68.6-1.06,89.84-27.55,2.77-3.55,5.33-7.41,7.62-11.49-8.02.16-16-.63-23.61-2.75Z"/>
  <path d="M99.77,306.35c-2.11,8.53-5.91,16.67-11.06,23.61,7.61,2.12,15.59,2.91,23.61,2.75,4.68-8.3,8.26-17.51,10.24-26.96-7.76,1.27-15.61,1.66-22.79.6Z"/>
  <path d="M148.37,298.63c-.08.03-.15.06-.23.09-.77,3.97-1.5,8-2.15,12.13-.04.28-.07.53-.08.81-.04,1.5-.17,7.19.08,15.64,3.71-1.05,7.32-2.19,10.8-3.4,16.81-5.88,8.48-30.65-8.42-25.27Z"/>
  <path d="M448.07,484.74c.17.03.35.07.52.1v-.02c-.17-.03-.34-.05-.52-.08Z"/>
</svg>