<?xml version="1.0" encoding="UTF-8"?>
<svg id="Capa_1" data-name="Capa 1" xmlns="http://www.w3.org/2000/svg" viewBox="0 0 1080 1080">
  <g>
    <path d="M152.89,822.66c-22.25,0-42.16-5.07-59.72-15.22-17.56-10.14-31.31-24.21-41.23-42.21-9.93-18-14.89-38.45-14.89-61.35s4.96-43.36,14.89-61.36c9.92-18,23.72-32.07,41.39-42.21,17.67-10.14,37.63-15.21,59.88-15.21,20.5,0,38.83,4.25,54.97,12.76,16.14,8.51,28.9,19.91,38.29,34.2,9.38,14.29,14.83,29.94,16.36,46.96h-34.36c-1.31-10.91-5.24-21.05-11.78-30.43-6.54-9.38-15.33-16.85-26.34-22.41-11.02-5.56-23.51-8.34-37.47-8.34-15.93,0-29.94,3.55-42.05,10.63-12.11,7.09-21.43,17.13-27.98,30.11-6.54,12.98-9.82,28.09-9.82,45.32s3.27,32.34,9.82,45.32c6.54,12.98,15.87,23.02,27.98,30.11,12.11,7.09,26.12,10.63,42.05,10.63,14.18,0,26.72-2.78,37.63-8.34,10.91-5.56,19.58-13.14,26.01-22.74,6.43-9.6,10.42-20.07,11.94-31.41h34.36c-1.53,17.24-7.09,33.11-16.69,47.61-9.6,14.51-22.42,26.07-38.45,34.69-16.03,8.62-34.31,12.93-54.81,12.93Z"/>
    <path d="M366.57,822.66c-15.71,0-29.67-3.66-41.89-10.96-12.22-7.31-21.76-17.51-28.63-30.6-6.87-13.09-10.31-27.92-10.31-44.5s3.44-31.09,10.31-44.18c6.87-13.09,16.41-23.34,28.63-30.76,12.21-7.41,26.18-11.13,41.89-11.13,11.78,0,22.96,2.4,33.54,7.2,10.58,4.8,18.7,12.22,24.38,22.25h2.29v-25.2h32.72v163.61h-32.72v-25.2h-2.29c-5.68,10.04-13.74,17.46-24.21,22.25s-21.71,7.2-33.7,7.2ZM373.44,791.57c10.69,0,20.07-2.23,28.14-6.71,8.07-4.47,14.29-10.85,18.65-19.14,4.36-8.29,6.54-18,6.54-29.12,0-16.8-4.86-30.16-14.56-40.09-9.71-9.92-22.63-14.89-38.78-14.89-10.69,0-20.07,2.24-28.14,6.71-8.07,4.47-14.29,10.85-18.65,19.14-4.37,8.29-6.54,18-6.54,29.12,0,16.8,4.85,30.16,14.56,40.08,9.7,9.93,22.63,14.89,38.78,14.89Z"/>
    <path d="M595.96,822.66c-12,0-23.23-2.4-33.7-7.2s-18.54-12.21-24.22-22.25h-2.29v25.2h-32.72v-229.06h32.72v90.64h2.29c5.67-10.03,13.79-17.45,24.38-22.25,10.58-4.8,21.76-7.2,33.54-7.2,15.71,0,29.67,3.71,41.89,11.13,12.21,7.42,21.76,17.67,28.63,30.76,6.87,13.09,10.31,27.81,10.31,44.18s-3.44,31.41-10.31,44.5c-6.87,13.09-16.42,23.29-28.63,30.6-12.22,7.31-26.18,10.96-41.89,10.96ZM589.09,791.57c10.69,0,20.07-2.23,28.14-6.71,8.07-4.47,14.29-10.85,18.65-19.14,4.36-8.29,6.54-18,6.54-29.12,0-16.8-4.86-30.16-14.56-40.09-9.71-9.92-22.64-14.89-38.78-14.89-10.69,0-20.07,2.24-28.14,6.71-8.07,4.47-14.29,10.85-18.65,19.14-4.37,8.29-6.54,18-6.54,29.12,0,16.8,4.85,30.16,14.56,40.08,9.7,9.93,22.63,14.89,38.78,14.89Z"/>
    <path d="M785.42,822.66c-16.58,0-31.36-3.66-44.34-10.96-12.98-7.31-23.13-17.51-30.43-30.6-7.31-13.09-10.96-28.03-10.96-44.83s3.6-31.36,10.8-44.34c7.2-12.98,17.18-23.12,29.94-30.43,12.76-7.31,27.21-10.96,43.36-10.96,17.67,0,33.26,4.2,46.79,12.6,13.52,8.4,23.56,19.91,30.1,34.52,6.54,14.62,8.51,30.87,5.89,48.76h-149.22v-27.81h134.49l-14.4,14.4c0-10.69-2.18-20.07-6.54-28.14-4.37-8.07-10.53-14.23-18.49-18.49-7.97-4.25-17.18-6.38-27.65-6.38s-19.63,2.24-27.49,6.71c-7.85,4.47-13.86,10.96-18,19.47-4.15,8.51-6.22,18.55-6.22,30.11,0,17.89,4.69,31.85,14.07,41.89,9.38,10.04,22.25,15.05,38.61,15.05,12.21,0,22.36-2.67,30.43-8.02,8.07-5.34,13.09-11.5,15.05-18.49h32.72c-1.53,9.82-5.78,18.98-12.76,27.49-6.98,8.51-16.2,15.38-27.65,20.62s-24.16,7.85-38.12,7.85Z"/>
    <path d="M898.64,818.41v-163.61h32.72v21.27h2.29c4.8-8.51,11.5-14.89,20.12-19.14,8.62-4.25,18.27-6.38,28.96-6.38,12.43,0,23.18,2.62,32.23,7.85,9.05,5.24,15.98,12.82,20.78,22.74,4.8,9.93,7.2,21.76,7.2,35.5v101.77h-32.72v-95.88c0-13.09-3.44-23.18-10.31-30.27-6.87-7.09-16.52-10.64-28.96-10.64s-22.42,3.6-29.29,10.8-10.31,17.24-10.31,30.11v95.88h-32.72Z"/>
  </g>
  <g>
    <path d="M70.65,941.39c-6.04,0-11.44-1.38-16.21-4.13-4.77-2.75-8.5-6.57-11.19-11.45-2.69-4.89-4.04-10.43-4.04-16.65s1.35-11.77,4.04-16.65c2.69-4.88,6.44-8.7,11.23-11.46,4.8-2.75,10.21-4.13,16.25-4.13,5.56,0,10.54,1.15,14.92,3.46,4.38,2.31,7.84,5.4,10.39,9.28,2.55,3.88,4.03,8.13,4.44,12.74h-9.32c-.36-2.96-1.42-5.71-3.2-8.26-1.78-2.54-4.16-4.57-7.15-6.08-2.99-1.51-6.38-2.27-10.17-2.27-4.32,0-8.13.96-11.41,2.89-3.29,1.92-5.82,4.65-7.59,8.17-1.78,3.52-2.66,7.62-2.66,12.3s.89,8.78,2.66,12.3c1.78,3.52,4.31,6.25,7.59,8.17,3.29,1.92,7.09,2.89,11.41,2.89,3.85,0,7.25-.75,10.21-2.26,2.96-1.51,5.31-3.57,7.06-6.17,1.75-2.6,2.83-5.45,3.24-8.52h9.32c-.41,4.68-1.92,8.98-4.53,12.92-2.61,3.94-6.08,7.07-10.43,9.41-4.35,2.34-9.31,3.51-14.87,3.51Z"/>
    <path d="M103.15,940.24l24.24-62.16h12.79l24.24,62.16h-10.03l-20.33-53.28h-.62l-20.42,53.28h-9.86ZM114.69,926.12v-8.7h37.56v8.7h-37.56Z"/>
    <path d="M172.41,940.24v-62.16h29.04c4.56,0,8.48.79,11.77,2.35,3.29,1.57,5.79,3.76,7.5,6.57,1.72,2.81,2.58,6.02,2.58,9.64s-.86,6.9-2.58,9.68c-1.72,2.78-4.22,4.96-7.5,6.53s-7.21,2.35-11.77,2.35h-24.86v-8.7h24.86c2.55,0,4.72-.38,6.53-1.15,1.81-.77,3.18-1.89,4.13-3.37.95-1.48,1.42-3.25,1.42-5.33,0-3.14-1.05-5.56-3.15-7.28-2.1-1.72-5.08-2.58-8.93-2.58h-19.71v53.46h-9.32ZM213.08,940.24l-22.11-30.73h11.01l22.38,30.73h-11.28Z"/>
    <path d="M234.13,940.24v-62.16h12.96l31.79,51.06h.62v-51.06h9.06v62.16h-12.96l-31.79-51.06h-.62v51.06h-9.06Z"/>
    <path d="M301.88,940.24v-62.16h43.96v8.7h-34.63v44.76h35.17v8.7h-44.49ZM306.05,912.89v-8.7h37.65v8.7h-37.65Z"/>
    <path d="M380.65,941.39c-5.8,0-10.73-.93-14.79-2.8-4.06-1.86-7.13-4.44-9.24-7.73-2.1-3.29-3.15-7.06-3.15-11.32h9.32c0,2.55.71,4.8,2.13,6.75,1.42,1.95,3.49,3.48,6.22,4.57,2.72,1.1,5.98,1.64,9.77,1.64,4.44,0,7.92-.8,10.43-2.4,2.52-1.6,3.77-4,3.77-7.19,0-1.95-.46-3.55-1.38-4.8-.92-1.24-2.41-2.26-4.48-3.06-2.07-.8-4.94-1.5-8.61-2.09-6.34-1.01-11.28-2.22-14.83-3.64s-6.08-3.25-7.59-5.51c-1.51-2.25-2.26-5.15-2.26-8.7,0-3.73.96-6.95,2.89-9.68,1.92-2.72,4.68-4.82,8.26-6.3,3.58-1.48,7.8-2.22,12.65-2.22s9.32.86,13.05,2.58c3.73,1.72,6.58,4.08,8.57,7.1,1.98,3.02,2.97,6.42,2.97,10.21h-9.32c0-2.49-.7-4.54-2.09-6.17-1.39-1.63-3.26-2.84-5.59-3.64-2.34-.8-4.99-1.2-7.95-1.2-4.26,0-7.61.74-10.03,2.22-2.43,1.48-3.64,3.67-3.64,6.57,0,1.9.49,3.42,1.47,4.57s2.6,2.1,4.88,2.84c2.28.74,5.55,1.38,9.81,1.91,5.45.71,9.86,1.82,13.23,3.33,3.37,1.51,5.85,3.51,7.41,5.99,1.57,2.49,2.35,5.59,2.35,9.32s-.99,7.28-2.97,10.12c-1.98,2.84-4.81,5-8.48,6.48-3.67,1.48-7.93,2.22-12.79,2.22Z"/>
    <path d="M455.24,940.24v-20.42l-22.82-41.74h10.48l16.78,31.7h.62l16.87-31.7h10.12l-22.73,41.74v20.42h-9.32Z"/>
    <path d="M517.04,940.24v-62.16h43.96v8.7h-34.63v44.76h35.17v8.7h-44.49ZM521.21,912.89v-8.7h37.65v8.7h-37.65Z"/>
    <path d="M571.74,940.24v-62.16h13.76l20.78,42.98h.62l20.96-42.98h13.32v62.16h-9.32v-50.62h-.62l-20.25,41.47h-9.15l-20.16-41.47h-.62v50.62h-9.32Z"/>
    <path d="M654.5,940.24v-62.16h27.26c4.62,0,8.54.71,11.77,2.13,3.23,1.42,5.64,3.36,7.24,5.82,1.6,2.46,2.4,5.25,2.4,8.39,0,2.84-.65,5.39-1.95,7.64-1.3,2.25-3.2,4.12-5.68,5.59v.62c3.2,1.48,5.64,3.54,7.33,6.17,1.69,2.63,2.53,5.61,2.53,8.93s-.83,6.16-2.49,8.7c-1.66,2.55-4.12,4.54-7.37,5.99-3.26,1.45-7.25,2.18-11.99,2.18h-29.04ZM683.27,931.54c2.78,0,5.09-.37,6.93-1.11,1.83-.74,3.2-1.81,4.08-3.2.89-1.39,1.33-3.03,1.33-4.93,0-2.9-1.02-5.16-3.06-6.79-2.04-1.63-5.14-2.44-9.28-2.44h-23.98v-8.52h22.2c2.66,0,4.88-.36,6.66-1.07,1.78-.71,3.09-1.73,3.95-3.06.86-1.33,1.29-2.92,1.29-4.75,0-2.78-.99-4.96-2.98-6.53s-4.96-2.35-8.92-2.35h-17.67v44.76h19.45Z"/>
    <path d="M740.37,941.39c-5.09,0-9.58-1.11-13.45-3.33-3.88-2.22-6.88-5.43-9.01-9.64-2.13-4.2-3.2-9.17-3.2-14.92v-35.43h9.32v35.43c0,4.14.67,7.64,2,10.48,1.33,2.84,3.23,4.97,5.68,6.39,2.46,1.42,5.34,2.13,8.66,2.13,5.15,0,9.19-1.61,12.12-4.84,2.93-3.23,4.4-7.95,4.4-14.16v-35.43h9.15v35.43c0,5.74-1.07,10.72-3.2,14.92-2.13,4.2-5.14,7.42-9.01,9.64-3.88,2.22-8.36,3.33-13.45,3.33Z"/>
    <path d="M795.07,940.24v-53.46h-21.49v-8.7h52.3v8.7h-21.49v53.46h-9.32Z"/>
    <path d="M833.88,940.24v-62.16h9.15v62.16h-9.15Z"/>
    <path d="M856.34,940.24v-62.16h20.16c7.64,0,14.1,1.33,19.4,4,5.3,2.66,9.29,6.34,11.99,11.01,2.69,4.68,4.04,10.03,4.04,16.07s-1.35,11.4-4.04,16.07c-2.69,4.68-6.69,8.35-11.99,11.01-5.3,2.66-11.77,4-19.4,4h-20.16ZM876.5,931.54c5.8,0,10.61-.95,14.43-2.84,3.82-1.89,6.65-4.51,8.48-7.86,1.83-3.34,2.75-7.24,2.75-11.68s-.92-8.42-2.75-11.77c-1.84-3.34-4.68-5.95-8.52-7.81-3.85-1.86-8.64-2.8-14.39-2.8h-10.83v44.76h10.83Z"/>
    <path d="M950.56,941.39c-6.1,0-11.53-1.38-16.3-4.13-4.77-2.75-8.5-6.57-11.19-11.45-2.69-4.89-4.04-10.43-4.04-16.65s1.35-11.77,4.04-16.65c2.69-4.88,6.42-8.7,11.19-11.46,4.77-2.75,10.2-4.13,16.3-4.13s11.53,1.38,16.3,4.13c4.76,2.75,8.49,6.57,11.19,11.46,2.69,4.88,4.04,10.43,4.04,16.65s-1.35,11.77-4.04,16.65c-2.69,4.88-6.42,8.7-11.19,11.45-4.77,2.75-10.2,4.13-16.3,4.13ZM950.56,932.51c4.38,0,8.21-.96,11.5-2.89,3.29-1.92,5.82-4.65,7.59-8.17,1.78-3.52,2.66-7.62,2.66-12.3s-.89-8.78-2.66-12.3-4.31-6.25-7.59-8.17c-3.29-1.92-7.12-2.89-11.5-2.89s-8.21.96-11.5,2.89c-3.29,1.92-5.82,4.65-7.59,8.17-1.78,3.52-2.66,7.62-2.66,12.3s.89,8.78,2.66,12.3c1.78,3.52,4.31,6.25,7.59,8.17,3.29,1.92,7.12,2.89,11.5,2.89Z"/>
    <path d="M1016.36,941.39c-5.8,0-10.73-.93-14.79-2.8-4.06-1.86-7.13-4.44-9.24-7.73-2.1-3.29-3.15-7.06-3.15-11.32h9.32c0,2.55.71,4.8,2.13,6.75,1.42,1.95,3.49,3.48,6.22,4.57,2.72,1.1,5.98,1.64,9.77,1.64,4.44,0,7.92-.8,10.43-2.4,2.52-1.6,3.77-4,3.77-7.19,0-1.95-.46-3.55-1.38-4.8-.92-1.24-2.41-2.26-4.48-3.06-2.07-.8-4.94-1.5-8.61-2.09-6.34-1.01-11.28-2.22-14.83-3.64s-6.08-3.25-7.59-5.51c-1.51-2.25-2.26-5.15-2.26-8.7,0-3.73.96-6.95,2.89-9.68,1.92-2.72,4.68-4.82,8.26-6.3,3.58-1.48,7.8-2.22,12.65-2.22s9.32.86,13.05,2.58c3.73,1.72,6.58,4.08,8.57,7.1,1.98,3.02,2.97,6.42,2.97,10.21h-9.32c0-2.49-.7-4.54-2.09-6.17-1.39-1.63-3.26-2.84-5.59-3.64-2.34-.8-4.99-1.2-7.95-1.2-4.26,0-7.61.74-10.03,2.22-2.43,1.48-3.64,3.67-3.64,6.57,0,1.9.49,3.42,1.47,4.57s2.6,2.1,4.88,2.84c2.28.74,5.55,1.38,9.81,1.91,5.45.71,9.86,1.82,13.23,3.33,3.37,1.51,5.85,3.51,7.41,5.99,1.57,2.49,2.35,5.59,2.35,9.32s-.99,7.28-2.97,10.12c-1.98,2.84-4.81,5-8.48,6.48-3.67,1.48-7.93,2.22-12.79,2.22Z"/>
  </g>
  <g>
    <path d="M457.24,442.94s-.04,0-.06,0c7.75.28,15.93,1.06,24.58,2.51-11.34-2.16-20.14-2.51-24.52-2.51Z"/>
    <path d="M888.41,240.55l-27.6-58.14c-3.2-6.75-12.5-7.52-16.77-1.39l-7.16,10.26c-.99,1.42-2.62,2.27-4.35,2.27h-395.29s-125.78-2.79-151.56,130.28c.05-.02.1-.04.15-.06,11.05-3.52,16.5,12.68,5.51,16.52-2.27.79-4.64,1.54-7.06,2.23.5,16.79,3.31,50.25,16.98,74.27,1.1,1.93.96,4.32-.49,6-7.98,9.21-32.65,41.63-35,92.26-.14,2.99,2.32,5.48,5.31,5.48h46.07c1.92,0,3.68-1.02,4.64-2.68,4.04-7,16.27-26.36,35.96-41.75,9.17-8.66,42.18-35.22,99.44-33.15.02,0,.04,0,.06,0,4.37,0,13.18.35,24.52,2.51.12.02.23.03.34.05h0c28.15,5.46,71.7,22.12,102.13,72.43.96,1.59,2.65,2.59,4.5,2.59,8.85,0,35.18,0,46.47,0,2.91,0,5.26-2.34,5.3-5.25l.51-43.99c.06-5.63,7.7-7.3,10.11-2.21l22.88,48.41c.88,1.86,2.75,3.04,4.8,3.04h44.14c3.66,0,6.22-3.61,5.01-7.06l-32.25-91.97c-.73-2.07-.1-4.38,1.57-5.8l187.73-159.34c4.58-3.89,5.98-10.37,3.4-15.8ZM717.71,263.01c-9.02,9.28-19.44,16.03-29.99,22.23-1.93,1.13-4.42.49-5.55-1.44-1.09-1.85-.54-4.21,1.2-5.4,11.36-7.84,38.43-27.23,34.05-42.8-10.42,4.28-21.24,7.41-32.26,9.52-13.08,2.51-25.92,3.91-39.33,3.94-2.75,0-4.98-2.24-4.98-4.99,0-2.75,2.25-4.97,4.97-4.98,18.43-.87,37.28-4.33,54.73-10.45,5.84-2,11.4-4.55,16.84-7.24,2.52-1.25,5.47-.71,7.4,1.12,11.42,12.28,2.97,30.95-7.1,40.49ZM772.94,275.95c-8.8,0-15.94-7.14-15.94-15.94s7.14-15.94,15.94-15.94,15.94,7.14,15.94,15.94-7.14,15.94-15.94,15.94Z"/>
    <path d="M378.58,515.1c-.1,2.98,2.31,5.43,5.29,5.43h43.83c2.9,0,5.27-2.3,5.3-5.2.13-10.06,2.05-33.63,15.26-61.09-38.39.74-63.78,15.35-76.06,24.6,2.96,10,6.75,25.18,6.38,36.26Z"/>
    <path d="M768.77,144.64c-.72-5.52-7.3-7.95-11.5-4.3-23.6,20.52-84.74,53.21-84.74,53.21h81.06c15.64-17.87,16.77-36.71,15.18-48.91Z"/>
    <path d="M235.92,313.94c-1.94-7.18,3.78-14.16,10.92-13.22,4.19,1.11,6.15,4.98,7.5,9.86,1.39,5.91,1.2,12.22-.29,18.25,4.69.69,9.82.43,14.9-.39,2.79-13.3.77-27.31-9.2-37.58-10.8-10.06-29.04-5.46-36.28,6.78-7.06,11.94-3.56,26.46,5.28,35.98,5.29,5.45,11.48,8.81,18.07,10.65,3.37-4.54,5.86-9.86,7.23-15.43-8.37-1.23-15.36-5.46-18.13-14.89Z"/>
    <path d="M284.21,332.3c0-.19.02-.35.05-.53.43-2.7.9-5.33,1.41-7.93-4.97,1.9-10.81,3.63-16.72,4.6-1.3,6.18-3.63,12.2-6.69,17.63,7.47-.15,15-1.56,22.01-3.54-.17-5.53-.08-9.25-.05-10.23Z"/>
    <path d="M246.82,344.26c-.16.21-.31.43-.47.64-9.76,12.96-28.38,18.87-44.23,14.41-8.08-2.12-11.53,9.72-3.58,12.27,20.82,6.23,44.85-.7,58.74-18.01,1.81-2.32,3.48-4.85,4.98-7.51-5.25.1-10.46-.41-15.44-1.8Z"/>
    <path d="M254.05,328.83c-1.38,5.58-3.87,10.9-7.23,15.43,4.98,1.39,10.19,1.9,15.44,1.8,3.06-5.43,5.4-11.45,6.69-17.63-5.08.83-10.2,1.08-14.9.39Z"/>
    <path d="M285.82,323.78s-.1.04-.15.06c-.5,2.6-.98,5.23-1.41,7.93-.03.19-.05.35-.05.53-.03.98-.11,4.7.05,10.23,2.42-.69,4.79-1.43,7.06-2.23,10.99-3.84,5.54-20.04-5.51-16.52Z"/>
    <path d="M481.76,445.46c.11.02.23.04.34.07h0c-.12-.03-.23-.05-.34-.07Z"/>
  </g>
</svg>